<?xml version="1.0" encoding="UTF-8"?>
<svg width="32" height="32" viewBox="0 0 32 32" fill="none" xmlns="http://www.w3.org/2000/svg">
  <!-- Background circle -->
  <circle cx="16" cy="16" r="16" fill="#2563EB"/>
  <!-- First S -->
  <path d="M12 12C12 10.8954 12.8954 10 14 10H16C17.1046 10 18 10.8954 18 12C18 13.1046 17.1046 14 16 14H14C12.8954 14 12 13.1046 12 12Z" fill="white"/>
  <path d="M14 14H16C17.1046 14 18 14.8954 18 16C18 17.1046 17.1046 18 16 18H14C12.8954 18 12 17.1046 12 16C12 14.8954 12.8954 14 14 14Z" fill="white"/>
  <!-- Second S -->
  <path d="M18 16C18 14.8954 18.8954 14 20 14H22C23.1046 14 24 14.8954 24 16C24 17.1046 23.1046 18 22 18H20C18.8954 18 18 17.1046 18 16Z" fill="white"/>
  <path d="M20 18H22C23.1046 18 24 18.8954 24 20C24 21.1046 23.1046 22 22 22H20C18.8954 22 18 21.1046 18 20C18 18.8954 18.8954 18 20 18Z" fill="white"/>
</svg> 